# xmcd CD database file
#
# Track frame offsets:
#	150
#	33427
#	66172
#	91082
#	122415
#	148145
#
# Disc length: 2362 seconds
#
# Revision: 0
# Processed by: cddbd v1.5.2PL0 Copyright (c) Steve Scherf et al.
# Submitted via: CDex 1.70beta3
#
DISCID=4b093806
DTITLE=King Curtis - Soul Meeting (Prestige 7222)
DYEAR=1960
DGENRE=Jazz
TTITLE0=Soul Meeting
TTITLE1=Lazy Soul
TTITLE2=All The Way 
TTITLE3=Jeep's Blues
TTITLE4=What Is This Thing Called Love
TTITLE5=Do You Have Soul Now
EXTD=YEAR: 1960
EXTT0=
EXTT1=
EXTT2=
EXTT3=
EXTT4=
EXTT5=
PLAYORDER=
